# xmcd
#
# Track frame offsets:
#	150
#	25236
#	44773
#	66869
#	90879
#	110933
#	131704
#	153708
#	177132
#	193334
#	215481
#	239919
#
# Disc length: 3697 seconds
#
# Revision: 4
# Processed by: cddbd v1.5.1PL0 Copyright (c) Steve Scherf et al.
# Submitted via: EasyCDDAExtractor 8.2.1.1
#
DISCID=ba0e6f0c
DTITLE=бамдг деспоима - стгм аукг тоу паяадеисоу
DYEAR=2004
DGENRE=казйа
TTITLE0=HAPPY END
TTITLE1=айаталавгтг екнг
TTITLE2=ма тг ваияесаи
TTITLE3=коукоуди лоу
TTITLE4=пехамес
TTITLE5=то пяыто лас жики
TTITLE6=пяосеуволаи
TTITLE7=аваяистг йаи акгтисса
TTITLE8=ои выяислемои
TTITLE9=стгм аукг тоу паяадеисоу
TTITLE10=йамто ам ле ацапас
TTITLE11=пеимаслемои
EXTD=YEAR: 2004
EXTT0=
EXTT1=
EXTT2=
EXTT3=
EXTT4=
EXTT5=
EXTT6=
EXTT7=
EXTT8=
EXTT9=
EXTT10=
EXTT11=
PLAYORDER=
